<?xml version="1.0" encoding="UTF-8"?>
<svg xmlns="http://www.w3.org/2000/svg" width="376" height="476" viewBox="0 0 376 476" fill="none">
  <path fill-rule="evenodd" clip-rule="evenodd" d="M77.9228 475.838H115.84C120.199 475.838 123.199 475.838 125.265 474.449C128.811 472.064 129.602 465.585 129.779 447.989C139.985 447.902 150.189 447.778 160.389 447.598C160.39 453.437 160.391 459.275 160.391 465.114C160.392 466.659 160.468 468.205 160.586 470.623L160.586 470.624C160.655 472.017 160.737 473.7 160.828 475.838H198.744C203.103 475.838 206.104 475.838 208.171 474.449C211.842 471.978 212.56 465.119 212.701 446.069C220.496 445.736 228.287 445.348 236.075 444.897C263.981 443.278 292.414 432.396 318.44 420.781C356.712 403.711 375.767 371.179 375.064 328.477C374.324 283.525 349.197 255.428 310.631 237.579C305.211 235.069 299.593 232.997 293.111 230.605C289.847 229.4 286.364 228.115 282.577 226.653C286.144 225.194 289.322 223.924 292.238 222.759C297.716 220.571 302.271 218.751 306.745 216.739C365.662 190.24 375.73 116.889 326.422 74.44C300.116 51.7873 268.558 39.1361 235.376 37.4585C227.86 37.0793 220.342 36.741 212.822 36.4376C212.828 32.1204 212.834 27.8032 212.84 23.4861C212.866 5.63945 211.455 -0.477428 205.941 0.0287335C194.111 1.12612 182.267 0.781418 170.427 0.436861L170.427 0.436848C168.762 0.388406 167.098 0.339968 165.433 0.295541C162.128 0.207543 160.275 1.90696 160.287 15.4382C160.292 21.8964 160.297 28.3545 160.302 34.8127C150.176 34.5801 140.048 34.3857 129.919 34.2151C129.924 30.6387 129.929 27.0624 129.934 23.4861C129.961 5.63945 128.549 -0.477428 123.035 0.0287335C111.206 1.1261 99.3621 0.781426 87.5224 0.436872C85.8575 0.388423 84.1927 0.339976 82.5281 0.295541C79.2224 0.207543 77.3696 1.90696 77.3814 15.4382C77.3863 21.4483 77.391 27.4584 77.3955 33.4685C55.0172 33.1774 32.6389 32.8802 10.2679 32.4208C0.821189 32.2202 -0.0623716 37.7225 0.00312884 45.146C0.132194 61.342 0.108626 77.5352 0.0850601 93.727C0.0758005 100.089 0.0665412 106.451 0.0665412 112.813C0.063754 182.133 0.0646831 251.455 0.0656122 320.774C0.0660767 355.433 0.0665412 390.092 0.0665412 424.749V445.122C2.89764 445.569 5.54684 446.095 8.07382 446.597C13.1833 447.611 17.7931 448.526 22.3966 448.483C40.5687 448.32 58.7478 448.274 76.9272 448.229C77.1128 448.228 77.2984 448.228 77.484 448.228C77.4845 453.856 77.4852 459.485 77.4859 465.114C77.4864 466.666 77.5627 468.221 77.6824 470.659C77.7505 472.046 77.8327 473.718 77.9228 475.838ZM160.355 135.101C157.988 135.207 155.611 135.293 153.24 135.298C153.24 151.137 153.24 165.584 153.239 181.708C155.608 181.757 157.99 181.892 160.368 182.046C160.365 166.397 160.36 150.749 160.355 135.101ZM160.381 285.053C157.032 285.243 154.98 285.723 153.736 286.994C150.84 289.953 152.328 297.204 152.039 315.082C152.044 331.496 152.046 338.389 155.451 341.295C156.635 342.306 158.232 342.834 160.384 343.112C160.383 323.759 160.382 304.406 160.381 285.053Z" fill="#FFB000"></path>
  <path fill-rule="evenodd" clip-rule="evenodd" d="M159.183 103.933C157.976 105.603 156.719 107.239 155.567 108.946C124.352 155.287 93.1247 201.621 61.9924 248.019C60.0616 250.9 58.8937 254.302 57.3677 257.46C60.9026 258.141 64.4341 259.379 67.9725 259.412C88.3968 259.617 108.823 259.517 129.249 259.557C138.62 259.576 141.433 262.411 141.442 271.914C141.464 305.532 141.452 339.152 141.452 372.769C141.452 374.658 141.452 376.543 141.452 378.429C141.9 378.6 142.347 378.774 142.795 378.946C143.798 377.646 144.892 376.409 145.792 375.039C176.276 328.599 206.748 282.148 237.197 235.685C238.715 233.369 240.158 230.975 241.359 228.479C243.025 225.019 241.8 222.708 238.07 222.05C236.01 221.687 233.88 221.635 231.784 221.632C212.007 221.62 192.23 221.667 172.452 221.659C163.501 221.657 160.78 219.005 160.768 209.987C160.723 176.859 160.748 143.735 160.746 110.606C160.746 108.533 160.746 106.459 160.746 104.386C160.224 104.234 159.702 104.083 159.183 103.933Z" fill="white"></path>
</svg>
